<svg width="181" height="42" viewBox="0 0 181 42" fill="none" xmlns="http://www.w3.org/2000/svg">
<path d="M2.72 24.904V21.576L16.48 13.864V17.256L5.888 23.112V23.368L16.48 29.192V32.616L2.72 24.904ZM29.4275 33.384C26.5902 33.384 24.4782 32.3813 23.0915 30.376C21.7262 28.3707 21.0435 25.5227 21.0435 21.832C21.0435 18.1413 21.7262 15.2933 23.0915 13.288C24.4782 11.2827 26.5902 10.28 29.4275 10.28C30.5155 10.28 31.4542 10.4293 32.2435 10.728C33.0542 11.0053 33.7475 11.4 34.3235 11.912C34.8995 12.4027 35.3795 12.9893 35.7635 13.672C36.1688 14.3333 36.4995 15.048 36.7555 15.816L33.5235 16.904C33.3528 16.392 33.1608 15.912 32.9475 15.464C32.7342 15.016 32.4675 14.632 32.1475 14.312C31.8275 13.992 31.4435 13.736 30.9955 13.544C30.5688 13.352 30.0355 13.256 29.3955 13.256C27.8168 13.256 26.6648 13.864 25.9395 15.08C25.2142 16.2747 24.8515 17.896 24.8515 19.944V23.72C24.8515 25.768 25.2142 27.4 25.9395 28.616C26.6648 29.8107 27.8168 30.408 29.3955 30.408C30.0355 30.408 30.5688 30.312 30.9955 30.12C31.4435 29.928 31.8275 29.672 32.1475 29.352C32.4675 29.032 32.7342 28.648 32.9475 28.2C33.1608 27.752 33.3528 27.272 33.5235 26.76L36.7555 27.848C36.4995 28.616 36.1688 29.3413 35.7635 30.024C35.3795 30.6853 34.8995 31.272 34.3235 31.784C33.7475 32.2747 33.0542 32.6693 32.2435 32.968C31.4542 33.2453 30.5155 33.384 29.4275 33.384ZM41.031 37.416L51.815 8.68H54.919L44.135 37.416H41.031ZM60.2825 29.224L70.8745 23.368V23.112L60.2825 17.288V13.864L74.0425 21.576V24.904L60.2825 32.616V29.224Z" fill="#12F7D6"/>
<path d="M94.408 33.384C92.4667 33.384 90.8347 33.0427 89.512 32.36C88.1893 31.6773 87.1013 30.7707 86.248 29.64L88.552 27.432C89.4053 28.456 90.312 29.2133 91.272 29.704C92.232 30.1733 93.32 30.408 94.536 30.408C95.944 30.408 97.0213 30.088 97.768 29.448C98.536 28.808 98.92 27.8907 98.92 26.696C98.92 25.736 98.6427 25 98.088 24.488C97.5333 23.9547 96.584 23.5707 95.24 23.336L92.808 22.952C91.7413 22.7813 90.8453 22.504 90.12 22.12C89.3947 21.7147 88.808 21.2453 88.36 20.712C87.912 20.1573 87.5813 19.5493 87.368 18.888C87.176 18.2053 87.08 17.4907 87.08 16.744C87.08 14.632 87.7627 13.032 89.128 11.944C90.4933 10.8347 92.3707 10.28 94.76 10.28C96.5307 10.28 98.0347 10.568 99.272 11.144C100.531 11.6987 101.544 12.488 102.312 13.512L100.072 15.752C99.4533 15.0053 98.7173 14.408 97.864 13.96C97.032 13.4907 95.9973 13.256 94.76 13.256C93.4373 13.256 92.424 13.544 91.72 14.12C91.0373 14.6747 90.696 15.496 90.696 16.584C90.696 17.5013 90.9627 18.2267 91.496 18.76C92.0507 19.272 93.0213 19.6453 94.408 19.88L96.776 20.296C98.7813 20.6587 100.243 21.3947 101.16 22.504C102.077 23.592 102.536 24.9253 102.536 26.504C102.536 27.528 102.355 28.4667 101.992 29.32C101.651 30.1733 101.128 30.8987 100.424 31.496C99.7413 32.0933 98.888 32.5627 97.864 32.904C96.8613 33.224 95.7093 33.384 94.408 33.384ZM106.876 9.32H110.364V19.304H110.524C110.694 18.8773 110.908 18.472 111.164 18.088C111.441 17.6827 111.772 17.3413 112.156 17.064C112.54 16.7653 112.988 16.5307 113.5 16.36C114.012 16.1893 114.609 16.104 115.292 16.104C116.956 16.104 118.3 16.648 119.324 17.736C120.348 18.824 120.86 20.3707 120.86 22.376V33H117.372V22.888C117.372 20.264 116.23 18.952 113.948 18.952C113.5 18.952 113.062 19.016 112.635 19.144C112.209 19.2507 111.825 19.4213 111.484 19.656C111.142 19.8907 110.865 20.1893 110.652 20.552C110.46 20.9147 110.364 21.3307 110.364 21.8V33H106.876V9.32ZM139.119 33C138.116 33 137.359 32.744 136.847 32.232C136.356 31.72 136.058 31.048 135.951 30.216H135.791C135.471 31.2187 134.884 31.9973 134.031 32.552C133.199 33.1067 132.132 33.384 130.831 33.384C129.146 33.384 127.802 32.9467 126.799 32.072C125.796 31.176 125.295 29.9493 125.295 28.392C125.295 26.792 125.882 25.576 127.055 24.744C128.25 23.8907 130.074 23.464 132.527 23.464H135.695V22.184C135.695 19.944 134.511 18.824 132.143 18.824C131.076 18.824 130.212 19.0373 129.551 19.464C128.89 19.8693 128.335 20.4133 127.887 21.096L125.807 19.4C126.276 18.504 127.066 17.736 128.175 17.096C129.284 16.4347 130.714 16.104 132.463 16.104C134.554 16.104 136.196 16.6053 137.391 17.608C138.586 18.6107 139.183 20.0613 139.183 21.96V30.248H141.263V33H139.119ZM131.823 30.824C132.954 30.824 133.882 30.568 134.607 30.056C135.332 29.544 135.695 28.8827 135.695 28.072V25.672H132.591C130.074 25.672 128.815 26.4293 128.815 27.944V28.584C128.815 29.3307 129.082 29.896 129.615 30.28C130.148 30.6427 130.884 30.824 131.823 30.824ZM155.587 30.184H155.427C155.256 30.6107 155.032 31.0267 154.755 31.432C154.499 31.816 154.179 32.1573 153.795 32.456C153.411 32.7333 152.963 32.9573 152.451 33.128C151.939 33.2987 151.341 33.384 150.659 33.384C148.995 33.384 147.651 32.84 146.627 31.752C145.603 30.664 145.091 29.1173 145.091 27.112V16.488H148.579V26.6C148.579 29.224 149.72 30.536 152.003 30.536C152.451 30.536 152.888 30.4827 153.315 30.376C153.741 30.248 154.125 30.0667 154.467 29.832C154.808 29.5973 155.075 29.3093 155.267 28.968C155.48 28.6053 155.587 28.1787 155.587 27.688V16.488H159.075V33H155.587V30.184ZM164.438 33V16.488H167.926V19.304H168.086C168.257 18.8773 168.47 18.472 168.726 18.088C169.003 17.6827 169.334 17.3413 169.718 17.064C170.102 16.7653 170.55 16.5307 171.062 16.36C171.574 16.1893 172.171 16.104 172.854 16.104C174.518 16.104 175.862 16.648 176.886 17.736C177.91 18.824 178.422 20.3707 178.422 22.376V33H174.934V22.888C174.934 20.264 173.793 18.952 171.51 18.952C171.062 18.952 170.625 19.016 170.198 19.144C169.771 19.2507 169.387 19.4213 169.046 19.656C168.705 19.8907 168.427 20.1893 168.214 20.552C168.022 20.9147 167.926 21.3307 167.926 21.8V33H164.438Z" fill="white"/>
</svg>
